<?xml version="1.0" encoding="utf-8"?>
<svg version="1.1" xmlns:xlink="http://www.w3.org/1999/xlink" width="261px" height="246px" xmlns="http://www.w3.org/2000/svg">
  <g transform="matrix(1 0 0 1 -1007 -26 )">
    <path d="M 125.78466796875 177.693359375  C 128.92822265625 173.155598958333  130.5 167.470052083333  130.5 160.63671875  C 130.5 153.803385416667  130.11767578125 147.530598958333  129.35302734375 141.818359375  C 128.58837890625 136.106119791667  127.335205078125 130.607421875  125.593505859375 125.322265625  C 123.851806640625 120.037109375  121.28173828125 115.873046875  117.88330078125 112.830078125  C 114.48486328125 109.787109375  110.3642578125 108.265625  105.521484375 108.265625  C 105.01171875 108.692708333333  103.7373046875 109.653645833333  101.6982421875 111.1484375  C 99.6591796875 112.643229166667  98.066162109375 113.791015625  96.919189453125 114.591796875  C 95.772216796875 115.392578125  94.26416015625 116.326822916667  92.39501953125 117.39453125  C 90.52587890625 118.462239583333  88.69921875 119.236328125  86.9150390625 119.716796875  C 85.130859375 120.197265625  83.3466796875 120.4375  81.5625 120.4375  C 79.7783203125 120.4375  77.994140625 120.197265625  76.2099609375 119.716796875  C 74.42578125 119.236328125  72.59912109375 118.462239583333  70.72998046875 117.39453125  C 68.86083984375 116.326822916667  67.352783203125 115.392578125  66.205810546875 114.591796875  C 65.058837890625 113.791015625  63.4658203125 112.643229166667  61.4267578125 111.1484375  C 59.3876953125 109.653645833333  58.11328125 108.692708333333  57.603515625 108.265625  C 52.7607421875 108.265625  48.64013671875 109.787109375  45.24169921875 112.830078125  C 41.84326171875 115.873046875  39.273193359375 120.037109375  37.531494140625 125.322265625  C 35.789794921875 130.607421875  34.53662109375 136.106119791667  33.77197265625 141.818359375  C 33.00732421875 147.530598958333  32.625 153.803385416667  32.625 160.63671875  C 32.625 167.470052083333  34.19677734375 173.155598958333  37.34033203125 177.693359375  C 40.48388671875 182.231119791667  44.349609375 184.5  48.9375 184  L 114.1875 184  C 118.775390625 184.5  122.64111328125 182.231119791667  125.78466796875 177.693359375  Z M 102.016845703125 103.060546875  C 107.666748046875 95.9602864583333  110.49169921875 87.3919270833333  110.49169921875 77.35546875  C 110.49169921875 67.3190104166667  107.666748046875 58.7506510416667  102.016845703125 51.650390625  C 96.366943359375 44.5501302083333  89.548828125 41  81.5625 41  C 73.576171875 41  66.758056640625 44.5501302083333  61.108154296875 51.650390625  C 55.458251953125 58.7506510416667  52.63330078125 67.3190104166667  52.63330078125 77.35546875  C 52.63330078125 87.3919270833333  55.458251953125 95.9602864583333  61.108154296875 103.060546875  C 66.758056640625 110.160807291667  73.576171875 113.7109375  81.5625 113.7109375  C 89.548828125 113.7109375  96.366943359375 110.160807291667  102.016845703125 103.060546875  Z M 227.22802734375 162.55859375  C 227.99267578125 161.59765625  228.375 160.369791666667  228 158.875  L 228 148.625  C 228.375 147.130208333333  227.99267578125 145.90234375  227.22802734375 144.94140625  C 226.46337890625 143.98046875  225.486328125 143.5  224.296875 143  L 150.890625 143  C 149.701171875 143.5  148.72412109375 143.98046875  147.95947265625 144.94140625  C 147.19482421875 145.90234375  146.8125 147.130208333333  146 148.625  L 146 158.875  C 146.8125 160.369791666667  147.19482421875 161.59765625  147.95947265625 162.55859375  C 148.72412109375 163.51953125  149.701171875 164  150.890625 164  L 224.296875 164  C 225.486328125 164  226.46337890625 163.51953125  227.22802734375 162.55859375  Z M 227.036865234375 121.318359375  C 227.928955078125 120.197265625  228.375 118.8359375  228.375 117.234375  L 228.375 108.265625  C 228.375 106.6640625  227.928955078125 105.302734375  227.036865234375 104.181640625  C 226.144775390625 103.060546875  225.0615234375 102.5  223.787109375 103  L 151.400390625 103  C 150.1259765625 102.5  149.042724609375 103.060546875  148.150634765625 104.181640625  C 147.258544921875 105.302734375  146.8125 106.6640625  146.8125 108.265625  L 146.8125 117.234375  C 146.8125 118.8359375  147.258544921875 120.197265625  148.150634765625 121.318359375  C 149.042724609375 122.439453125  150.1259765625 123  151.400390625 123  L 223.787109375 123  C 225.0615234375 123  226.144775390625 122.439453125  227.036865234375 121.318359375  Z M 227.22802734375 80.55859375  C 227.99267578125 79.59765625  228.375 78.3697916666667  228 76.875  L 228 66.625  C 228.375 65.1302083333333  227.99267578125 63.90234375  227.22802734375 62.94140625  C 226.46337890625 61.98046875  225.486328125 61.5  224.296875 62  L 150.890625 62  C 149.701171875 61.5  148.72412109375 61.98046875  147.95947265625 62.94140625  C 147.19482421875 63.90234375  146.8125 65.1302083333333  146 66.625  L 146 76.875  C 146.8125 78.3697916666667  147.19482421875 79.59765625  147.95947265625 80.55859375  C 148.72412109375 81.51953125  149.701171875 82  150.890625 82  L 224.296875 82  C 225.486328125 82  226.46337890625 81.51953125  227.22802734375 80.55859375  Z M 255.01025390625 7.52734375000001  C 259.00341796875 12.5455729166667  261 18.578125  261 25.625  L 261 220.375  C 261 227.421875  259.00341796875 233.454427083333  255.01025390625 238.47265625  C 251.01708984375 243.490885416667  246.216796875 246  240.609375 246  L 195 246  L 195 230.625  C 195.75 229.130208333333  195.36767578125 227.90234375  194.60302734375 226.94140625  C 193.83837890625 225.98046875  192.861328125 225.5  191.671875 225.5  L 183.515625 225.5  C 182.326171875 225.5  181.34912109375 225.98046875  180.58447265625 226.94140625  C 179.81982421875 227.90234375  179.4375 229.130208333333  179 230.625  L 179 246  L 82 246  L 82 230.625  C 81.5625 229.130208333333  81.18017578125 227.90234375  80.41552734375 226.94140625  C 79.65087890625 225.98046875  78.673828125 225.5  77.484375 225.5  L 69.328125 225.5  C 68.138671875 225.5  67.16162109375 225.98046875  66.39697265625 226.94140625  C 65.63232421875 227.90234375  65.25 229.130208333333  66 230.625  L 66 246  L 20.390625 246  C 14.783203125 246  9.98291015625 243.490885416667  5.98974609375 238.47265625  C 1.99658203125 233.454427083333  0 227.421875  0 220.375  L 0 25.625  C 0 18.578125  1.99658203125 12.5455729166667  5.98974609375 7.52734375000001  C 9.98291015625 2.50911458333331  14.783203125 0  20.390625 0  L 240.609375 0  C 246.216796875 0  251.01708984375 2.50911458333331  255.01025390625 7.52734375000001  Z " fill-rule="nonzero" fill="#ffffff" stroke="none" transform="matrix(1 0 0 1 1007 26 )" />
  </g>
</svg>