<?xml version="1.0" encoding="utf-8"?>
<svg version="1.1" xmlns:xlink="http://www.w3.org/1999/xlink" width="256px" height="246px" xmlns="http://www.w3.org/2000/svg">
  <g transform="matrix(1 0 0 1 -1002 -26 )">
    <path d="M 123.375 177.693359375  C 126.458333333333 173.155598958333  128 167.470052083333  128 160.63671875  C 128 153.803385416667  127.625 147.530598958333  126.875 141.818359375  C 126.125 136.106119791667  124.895833333333 130.607421875  123.1875 125.322265625  C 121.479166666667 120.037109375  118.958333333333 115.873046875  115.625 112.830078125  C 112.291666666667 109.787109375  108.25 108.265625  103.5 108.265625  C 103 108.692708333333  101.75 109.653645833333  99.75 111.1484375  C 97.75 112.643229166667  96.1875 113.791015625  95.0625 114.591796875  C 93.9375 115.392578125  92.4583333333333 116.326822916667  90.625 117.39453125  C 88.7916666666667 118.462239583333  87 119.236328125  85.25 119.716796875  C 83.5 120.197265625  81.75 120.4375  80 120.4375  C 78.25 120.4375  76.5 120.197265625  74.75 119.716796875  C 73 119.236328125  71.2083333333333 118.462239583333  69.375 117.39453125  C 67.5416666666667 116.326822916667  66.0625 115.392578125  64.9375 114.591796875  C 63.8125 113.791015625  62.25 112.643229166667  60.25 111.1484375  C 58.25 109.653645833333  57 108.692708333333  56.5 108.265625  C 51.75 108.265625  47.7083333333333 109.787109375  44.375 112.830078125  C 41.0416666666667 115.873046875  38.5208333333333 120.037109375  36.8125 125.322265625  C 35.1041666666667 130.607421875  33.875 136.106119791667  33.125 141.818359375  C 32.375 147.530598958333  32 153.803385416667  32 160.63671875  C 32 167.470052083333  33.5416666666667 173.155598958333  36.625 177.693359375  C 39.7083333333333 182.231119791667  43.5 184.5  48 184  L 112 184  C 116.5 184.5  120.291666666667 182.231119791667  123.375 177.693359375  Z M 100.0625 103.060546875  C 105.604166666667 95.9602864583333  108.375 87.3919270833333  108.375 77.35546875  C 108.375 67.3190104166667  105.604166666667 58.7506510416667  100.0625 51.650390625  C 94.5208333333333 44.5501302083333  87.8333333333333 41  80 41  C 72.1666666666667 41  65.4791666666667 44.5501302083333  59.9375 51.650390625  C 54.3958333333333 58.7506510416667  51.625 67.3190104166667  51.625 77.35546875  C 51.625 87.3919270833333  54.3958333333333 95.9602864583333  59.9375 103.060546875  C 65.4791666666667 110.160807291667  72.1666666666667 113.7109375  80 113.7109375  C 87.8333333333333 113.7109375  94.5208333333333 110.160807291667  100.0625 103.060546875  Z M 222.875 162.55859375  C 223.625 161.59765625  224 160.369791666667  224 158.875  L 224 148.625  C 224 147.130208333333  223.625 145.90234375  222.875 144.94140625  C 222.125 143.98046875  221.166666666667 143.5  220 143  L 148 143  C 146.833333333333 143.5  145.875 143.98046875  145.125 144.94140625  C 144.375 145.90234375  144 147.130208333333  144 148.625  L 144 158.875  C 144 160.369791666667  144.375 161.59765625  145.125 162.55859375  C 145.875 163.51953125  146.833333333333 164  148 164  L 220 164  C 221.166666666667 164  222.125 163.51953125  222.875 162.55859375  Z M 222.6875 121.318359375  C 223.5625 120.197265625  224 118.8359375  224 117.234375  L 224 108.265625  C 224 106.6640625  223.5625 105.302734375  222.6875 104.181640625  C 221.8125 103.060546875  220.75 102.5  219.5 103  L 148.5 103  C 147.25 102.5  146.1875 103.060546875  145.3125 104.181640625  C 144.4375 105.302734375  144 106.6640625  144 108.265625  L 144 117.234375  C 144 118.8359375  144.4375 120.197265625  145.3125 121.318359375  C 146.1875 122.439453125  147.25 123  148.5 123  L 219.5 123  C 220.75 123  221.8125 122.439453125  222.6875 121.318359375  Z M 222.875 80.55859375  C 223.625 79.59765625  224 78.3697916666667  224 76.875  L 224 66.625  C 224 65.1302083333333  223.625 63.90234375  222.875 62.94140625  C 222.125 61.98046875  221.166666666667 61.5  220 62  L 148 62  C 146.833333333333 61.5  145.875 61.98046875  145.125 62.94140625  C 144.375 63.90234375  144 65.1302083333333  144 66.625  L 144 76.875  C 144 78.3697916666667  144.375 79.59765625  145.125 80.55859375  C 145.875 81.51953125  146.833333333333 82  148 82  L 220 82  C 221.166666666667 82  222.125 81.51953125  222.875 80.55859375  Z M 250.125 7.52734375000001  C 254.041666666667 12.5455729166667  256 18.578125  256 25.625  L 256 220.375  C 256 227.421875  254.041666666667 233.454427083333  250.125 238.47265625  C 246.208333333333 243.490885416667  241.5 246  236 246  L 192 246  L 192 230.625  C 192 229.130208333333  191.625 227.90234375  190.875 226.94140625  C 190.125 225.98046875  189.166666666667 225.5  188 225.5  L 180 225.5  C 178.833333333333 225.5  177.875 225.98046875  177.125 226.94140625  C 176.375 227.90234375  176 229.130208333333  176 230.625  L 176 246  L 80 246  L 80 230.625  C 80 229.130208333333  79.625 227.90234375  78.875 226.94140625  C 78.125 225.98046875  77.1666666666667 225.5  76 225.5  L 68 225.5  C 66.8333333333333 225.5  65.875 225.98046875  65.125 226.94140625  C 64.375 227.90234375  64 229.130208333333  64 230.625  L 64 246  L 20 246  C 14.5 246  9.79166666666667 243.490885416667  5.875 238.47265625  C 1.95833333333333 233.454427083333  0 227.421875  0 220.375  L 0 25.625  C 0 18.578125  1.95833333333333 12.5455729166667  5.875 7.52734375000001  C 9.79166666666667 2.50911458333331  14.5 0  20 0  L 236 0  C 241.5 0  246.208333333333 2.50911458333331  250.125 7.52734375000001  Z " fill-rule="nonzero" fill="#ffffff" stroke="none" transform="matrix(1 0 0 1 1002 26 )" />
  </g>
</svg>