<?xml version="1.0" encoding="utf-8"?>
<svg version="1.1" xmlns:xlink="http://www.w3.org/1999/xlink" width="258px" height="246px" xmlns="http://www.w3.org/2000/svg">
  <g transform="matrix(1 0 0 1 -1010 -26 )">
    <path d="M 124.3388671875 177.693359375  C 127.4462890625 173.155598958333  129 167.470052083333  129 160.63671875  C 129 153.803385416667  128.6220703125 147.530598958333  127.8662109375 141.818359375  C 127.1103515625 136.106119791667  125.87158203125 130.607421875  124.14990234375 125.322265625  C 122.42822265625 120.037109375  119.8876953125 115.873046875  116.5283203125 112.830078125  C 113.1689453125 109.787109375  109.095703125 108.265625  104.30859375 108.265625  C 103.8046875 108.692708333333  102.544921875 109.653645833333  100.529296875 111.1484375  C 98.513671875 112.643229166667  96.93896484375 113.791015625  95.80517578125 114.591796875  C 94.67138671875 115.392578125  93.1806640625 116.326822916667  91.3330078125 117.39453125  C 89.4853515625 118.462239583333  87.6796875 119.236328125  85.916015625 119.716796875  C 84.15234375 120.197265625  82.388671875 120.4375  80.625 120.4375  C 78.861328125 120.4375  77.09765625 120.197265625  75.333984375 119.716796875  C 73.5703125 119.236328125  71.7646484375 118.462239583333  69.9169921875 117.39453125  C 68.0693359375 116.326822916667  66.57861328125 115.392578125  65.44482421875 114.591796875  C 64.31103515625 113.791015625  62.736328125 112.643229166667  60.720703125 111.1484375  C 58.705078125 109.653645833333  57.4453125 108.692708333333  56.94140625 108.265625  C 52.154296875 108.265625  48.0810546875 109.787109375  44.7216796875 112.830078125  C 41.3623046875 115.873046875  38.82177734375 120.037109375  37.10009765625 125.322265625  C 35.37841796875 130.607421875  34.1396484375 136.106119791667  33.3837890625 141.818359375  C 32.6279296875 147.530598958333  32.25 153.803385416667  32.25 160.63671875  C 32.25 167.470052083333  33.8037109375 173.155598958333  36.9111328125 177.693359375  C 40.0185546875 182.231119791667  43.83984375 184.5  48.375 184  L 112.875 184  C 117.41015625 184.5  121.2314453125 182.231119791667  124.3388671875 177.693359375  Z M 100.84423828125 103.060546875  C 106.42919921875 95.9602864583333  109.2216796875 87.3919270833333  109.2216796875 77.35546875  C 109.2216796875 67.3190104166667  106.42919921875 58.7506510416667  100.84423828125 51.650390625  C 95.25927734375 44.5501302083333  88.51953125 41  80.625 41  C 72.73046875 41  65.99072265625 44.5501302083333  60.40576171875 51.650390625  C 54.82080078125 58.7506510416667  52.0283203125 67.3190104166667  52.0283203125 77.35546875  C 52.0283203125 87.3919270833333  54.82080078125 95.9602864583333  60.40576171875 103.060546875  C 65.99072265625 110.160807291667  72.73046875 113.7109375  80.625 113.7109375  C 88.51953125 113.7109375  95.25927734375 110.160807291667  100.84423828125 103.060546875  Z M 224.6162109375 162.55859375  C 225.3720703125 161.59765625  225.75 160.369791666667  225 158.875  L 225 148.625  C 225.75 147.130208333333  225.3720703125 145.90234375  224.6162109375 144.94140625  C 223.8603515625 143.98046875  222.89453125 143.5  221.71875 143  L 149.15625 143  C 147.98046875 143.5  147.0146484375 143.98046875  146.2587890625 144.94140625  C 145.5029296875 145.90234375  145.125 147.130208333333  145 148.625  L 145 158.875  C 145.125 160.369791666667  145.5029296875 161.59765625  146.2587890625 162.55859375  C 147.0146484375 163.51953125  147.98046875 164  149.15625 164  L 221.71875 164  C 222.89453125 164  223.8603515625 163.51953125  224.6162109375 162.55859375  Z M 224.42724609375 121.318359375  C 225.30908203125 120.197265625  225.75 118.8359375  225.75 117.234375  L 225.75 108.265625  C 225.75 106.6640625  225.30908203125 105.302734375  224.42724609375 104.181640625  C 223.54541015625 103.060546875  222.474609375 102.5  221.21484375 103  L 149.66015625 103  C 148.400390625 102.5  147.32958984375 103.060546875  146.44775390625 104.181640625  C 145.56591796875 105.302734375  145.125 106.6640625  145.125 108.265625  L 145.125 117.234375  C 145.125 118.8359375  145.56591796875 120.197265625  146.44775390625 121.318359375  C 147.32958984375 122.439453125  148.400390625 123  149.66015625 123  L 221.21484375 123  C 222.474609375 123  223.54541015625 122.439453125  224.42724609375 121.318359375  Z M 224.6162109375 80.55859375  C 225.3720703125 79.59765625  225.75 78.3697916666667  225 76.875  L 225 66.625  C 225.75 65.1302083333333  225.3720703125 63.90234375  224.6162109375 62.94140625  C 223.8603515625 61.98046875  222.89453125 61.5  221.71875 62  L 149.15625 62  C 147.98046875 61.5  147.0146484375 61.98046875  146.2587890625 62.94140625  C 145.5029296875 63.90234375  145.125 65.1302083333333  145 66.625  L 145 76.875  C 145.125 78.3697916666667  145.5029296875 79.59765625  146.2587890625 80.55859375  C 147.0146484375 81.51953125  147.98046875 82  149.15625 82  L 221.71875 82  C 222.89453125 82  223.8603515625 81.51953125  224.6162109375 80.55859375  Z M 252.0791015625 7.52734375000001  C 256.0263671875 12.5455729166667  258 18.578125  258 25.625  L 258 220.375  C 258 227.421875  256.0263671875 233.454427083333  252.0791015625 238.47265625  C 248.1318359375 243.490885416667  243.38671875 246  237.84375 246  L 193 246  L 193 230.625  C 193.5 229.130208333333  193.1220703125 227.90234375  192.3662109375 226.94140625  C 191.6103515625 225.98046875  190.64453125 225.5  189.46875 225.5  L 181.40625 225.5  C 180.23046875 225.5  179.2646484375 225.98046875  178.5087890625 226.94140625  C 177.7529296875 227.90234375  177.375 229.130208333333  177 230.625  L 177 246  L 81 246  L 81 230.625  C 80.625 229.130208333333  80.2470703125 227.90234375  79.4912109375 226.94140625  C 78.7353515625 225.98046875  77.76953125 225.5  76.59375 225.5  L 68.53125 225.5  C 67.35546875 225.5  66.3896484375 225.98046875  65.6337890625 226.94140625  C 64.8779296875 227.90234375  64.5 229.130208333333  65 230.625  L 65 246  L 20.15625 246  C 14.61328125 246  9.8681640625 243.490885416667  5.9208984375 238.47265625  C 1.9736328125 233.454427083333  0 227.421875  0 220.375  L 0 25.625  C 0 18.578125  1.9736328125 12.5455729166667  5.9208984375 7.52734375000001  C 9.8681640625 2.50911458333331  14.61328125 0  20.15625 0  L 237.84375 0  C 243.38671875 0  248.1318359375 2.50911458333331  252.0791015625 7.52734375000001  Z " fill-rule="nonzero" fill="#ffffff" stroke="none" transform="matrix(1 0 0 1 1010 26 )" />
  </g>
</svg>