<?xml version="1.0" encoding="utf-8"?>
<svg version="1.1" xmlns:xlink="http://www.w3.org/1999/xlink" width="256px" height="248px" xmlns="http://www.w3.org/2000/svg">
  <g transform="matrix(1 0 0 1 -1002 -26 )">
    <path d="M 123.375 179.138020833333  C 126.458333333333 174.563368055556  128 168.831597222222  128 161.942708333333  C 128 155.053819444444  127.625 148.730034722222  126.875 142.971354166667  C 126.125 137.212673611111  124.895833333333 131.669270833333  123.1875 126.341145833333  C 121.479166666667 121.013020833333  118.958333333333 116.815104166667  115.625 113.747395833333  C 112.291666666667 110.6796875  108.25 109.145833333333  103.5 109.145833333333  C 103 109.576388888889  101.75 110.545138888889  99.75 112.052083333333  C 97.75 113.559027777778  96.1875 114.716145833333  95.0625 115.5234375  C 93.9375 116.330729166667  92.4583333333333 117.272569444444  90.625 118.348958333333  C 88.7916666666667 119.425347222222  87 120.205729166667  85.25 120.690104166667  C 83.5 121.174479166667  81.75 121.416666666667  80 121.416666666667  C 78.25 121.416666666667  76.5 121.174479166667  74.75 120.690104166667  C 73 120.205729166667  71.2083333333333 119.425347222222  69.375 118.348958333333  C 67.5416666666667 117.272569444444  66.0625 116.330729166667  64.9375 115.5234375  C 63.8125 114.716145833333  62.25 113.559027777778  60.25 112.052083333333  C 58.25 110.545138888889  57 109.576388888889  56.5 109.145833333333  C 51.75 109.145833333333  47.7083333333333 110.6796875  44.375 113.747395833333  C 41.0416666666667 116.815104166667  38.5208333333333 121.013020833333  36.8125 126.341145833333  C 35.1041666666667 131.669270833333  33.875 137.212673611111  33.125 142.971354166667  C 32.375 148.730034722222  32 155.053819444444  32 161.942708333333  C 32 168.831597222222  33.5416666666667 174.563368055556  36.625 179.138020833333  C 39.7083333333333 183.712673611111  43.5 186  48 186  L 112 186  C 116.5 186  120.291666666667 183.712673611111  123.375 179.138020833333  Z M 100.0625 103.8984375  C 105.604166666667 96.7404513888889  108.375 88.1024305555555  108.375 77.984375  C 108.375 67.8663194444444  105.604166666667 59.2282986111111  100.0625 52.0703125  C 94.5208333333333 44.9123263888889  87.8333333333333 41.3333333333333  80 41.3333333333333  C 72.1666666666667 41.3333333333333  65.4791666666667 44.9123263888889  59.9375 52.0703125  C 54.3958333333333 59.2282986111111  51.625 67.8663194444444  51.625 77.984375  C 51.625 88.1024305555555  54.3958333333333 96.7404513888889  59.9375 103.8984375  C 65.4791666666667 111.056423611111  72.1666666666667 114.635416666667  80 114.635416666667  C 87.8333333333333 114.635416666667  94.5208333333333 111.056423611111  100.0625 103.8984375  Z M 222.875 163.880208333333  C 223.625 162.911458333333  224 161.673611111111  224 160.166666666667  L 224 149.833333333333  C 224 148.326388888889  223.625 147.088541666667  222.875 146.119791666667  C 222.125 145.151041666667  221.166666666667 144.666666666667  220 144  L 148 144  C 146.833333333333 144.666666666667  145.875 145.151041666667  145.125 146.119791666667  C 144.375 147.088541666667  144 148.326388888889  144 149.833333333333  L 144 160.166666666667  C 144 161.673611111111  144.375 162.911458333333  145.125 163.880208333333  C 145.875 164.848958333333  146.833333333333 165.333333333333  148 165  L 220 165  C 221.166666666667 165.333333333333  222.125 164.848958333333  222.875 163.880208333333  Z M 222.6875 122.3046875  C 223.5625 121.174479166667  224 119.802083333333  224 118.1875  L 224 109.145833333333  C 224 107.53125  223.5625 106.158854166667  222.6875 105.028645833333  C 221.8125 103.8984375  220.75 103.333333333333  219.5 104  L 148.5 104  C 147.25 103.333333333333  146.1875 103.8984375  145.3125 105.028645833333  C 144.4375 106.158854166667  144 107.53125  144 109.145833333333  L 144 118.1875  C 144 119.802083333333  144.4375 121.174479166667  145.3125 122.3046875  C 146.1875 123.434895833333  147.25 124  148.5 124  L 219.5 124  C 220.75 124  221.8125 123.434895833333  222.6875 122.3046875  Z M 222.875 81.2135416666667  C 223.625 80.2447916666667  224 79.0069444444444  224 77.5  L 224 67.1666666666667  C 224 65.6597222222222  223.625 64.421875  222.875 63.453125  C 222.125 62.484375  221.166666666667 62  220 62  L 148 62  C 146.833333333333 62  145.875 62.484375  145.125 63.453125  C 144.375 64.421875  144 65.6597222222222  144 67.1666666666667  L 144 77.5  C 144 79.0069444444444  144.375 80.2447916666667  145.125 81.2135416666667  C 145.875 82.1822916666667  146.833333333333 82.6666666666667  148 83  L 220 83  C 221.166666666667 82.6666666666667  222.125 82.1822916666667  222.875 81.2135416666667  Z M 250.125 7.58854166666668  C 254.041666666667 12.6475694444444  256 18.7291666666667  256 25.8333333333333  L 256 222.166666666667  C 256 229.270833333333  254.041666666667 235.352430555556  250.125 240.411458333333  C 246.208333333333 245.470486111111  241.5 248  236 248  L 192 248  L 192 232.5  C 192 230.993055555556  191.625 229.755208333333  190.875 228.786458333333  C 190.125 227.817708333333  189.166666666667 227.333333333333  188 227.333333333333  L 180 227.333333333333  C 178.833333333333 227.333333333333  177.875 227.817708333333  177.125 228.786458333333  C 176.375 229.755208333333  176 230.993055555556  176 232.5  L 176 248  L 80 248  L 80 232.5  C 80 230.993055555556  79.625 229.755208333333  78.875 228.786458333333  C 78.125 227.817708333333  77.1666666666667 227.333333333333  76 227.333333333333  L 68 227.333333333333  C 66.8333333333333 227.333333333333  65.875 227.817708333333  65.125 228.786458333333  C 64.375 229.755208333333  64 230.993055555556  64 232.5  L 64 248  L 20 248  C 14.5 248  9.79166666666667 245.470486111111  5.875 240.411458333333  C 1.95833333333333 235.352430555556  0 229.270833333333  0 222.166666666667  L 0 25.8333333333333  C 0 18.7291666666667  1.95833333333333 12.6475694444444  5.875 7.58854166666668  C 9.79166666666667 2.52951388888886  14.5 0  20 0  L 236 0  C 241.5 0  246.208333333333 2.52951388888886  250.125 7.58854166666668  Z " fill-rule="nonzero" fill="#ffffff" stroke="none" transform="matrix(1 0 0 1 1002 26 )" />
  </g>
</svg>